<svg id="Capa_1" data-name="Capa 1" xmlns="http://www.w3.org/2000/svg" xmlns:xlink="http://www.w3.org/1999/xlink" viewBox="0 0 726.78 223.32"><defs><style>.cls-1{fill:#1d1d1b;}.cls-2{fill:url(#Degradado_sin_nombre_3);}.cls-3{fill:url(#Degradado_sin_nombre_3-2);}.cls-4{fill:url(#Degradado_sin_nombre_3-3);}.cls-5{fill:url(#Degradado_sin_nombre_3-4);}</style><linearGradient id="Degradado_sin_nombre_3" x1="96.61" y1="235.05" x2="136.49" y2="370.9" gradientUnits="userSpaceOnUse"><stop offset="0" stop-color="#fff158"/><stop offset="1" stop-color="#ccb253"/></linearGradient><linearGradient id="Degradado_sin_nombre_3-2" x1="193.98" y1="172.87" x2="179.04" y2="248.05" xlink:href="#Degradado_sin_nombre_3"/><linearGradient id="Degradado_sin_nombre_3-3" x1="292.92" y1="425.95" x2="288.26" y2="367.95" xlink:href="#Degradado_sin_nombre_3"/><linearGradient id="Degradado_sin_nombre_3-4" x1="253.26" y1="336.89" x2="262.9" y2="213.97" xlink:href="#Degradado_sin_nombre_3"/></defs><title>AnanaÌ-logo-vertical</title><g id="_Group_" data-name="&lt;Group&gt;"><path id="_Compound_Path_" data-name="&lt;Compound Path&gt;" class="cls-1" d="M408.16,317.26H379.35l-2,4.81Q373,332.53,373,335.72a6.09,6.09,0,0,0,2.33,5.17,9.52,9.52,0,0,0,5.95,1.77v2.57H358.77v-2.57c3.36-.53,5.86-1.71,7.5-3.56s3.61-5.73,5.93-11.66c.18-.56,1.08-2.72,2.68-6.49l22-52.63h2.18l25.34,60.24,3.47,7.94a10.53,10.53,0,0,0,3.16,4.23,11.55,11.55,0,0,0,5.95,1.93v2.57H407.21v-2.57q5.48,0,7.41-.81a3.16,3.16,0,0,0,1.93-3.22q0-1.23-2.57-7.33Zm-1-2.51-13.43-32.33-13.36,32.33Z" transform="translate(-37.23 -191.9)"/><path id="_Compound_Path_2" data-name="&lt;Compound Path&gt;" class="cls-1" d="M506.82,347l-53.64-71.09v52.64q0,6.54.65,8.61t3.66,3.8q3,1.74,9.06,1.74v2.57h-28.3v-2.57a20.37,20.37,0,0,0,8.28-2q2.85-1.59,3.38-3.44c.36-1.23.53-4.14.53-8.72V288.29q0-8.73-.81-11.69c-.54-2-1.4-3.24-2.57-3.8s-3.8-.84-7.86-.84v-2.58h22.37l44.92,59.35V283.37q0-5-1-7.05a7.33,7.33,0,0,0-4.22-3.19,22.32,22.32,0,0,0-7.66-1.17v-2.58h27.51V272a20,20,0,0,0-7.57,1.84,6.91,6.91,0,0,0-3.53,3.5,22.22,22.22,0,0,0-.75,6.91V347Z" transform="translate(-37.23 -191.9)"/><path id="_Compound_Path_3" data-name="&lt;Compound Path&gt;" class="cls-1" d="M568.46,317.26H539.65l-1.95,4.81q-4.37,10.46-4.37,13.65a6.09,6.09,0,0,0,2.33,5.17,9.52,9.52,0,0,0,6,1.77v2.57H519.07v-2.57c3.36-.53,5.86-1.71,7.5-3.56s3.61-5.73,5.93-11.66c.18-.56,1.08-2.72,2.68-6.49l22-52.63h2.18l25.34,60.24,3.47,7.94a10.53,10.53,0,0,0,3.16,4.23,11.55,11.55,0,0,0,6,1.93v2.57H567.51v-2.57c3.65,0,6.13-.27,7.41-.81a3.16,3.16,0,0,0,1.93-3.22q0-1.23-2.57-7.33Zm-1-2.51-13.43-32.33-13.36,32.33Z" transform="translate(-37.23 -191.9)"/><path id="_Compound_Path_4" data-name="&lt;Compound Path&gt;" class="cls-1" d="M667.12,347l-53.64-71.09v52.64q0,6.54.65,8.61t3.66,3.8q3,1.74,9.06,1.74v2.57h-28.3v-2.57a20.37,20.37,0,0,0,8.28-2q2.85-1.59,3.38-3.44c.36-1.23.53-4.14.53-8.72V288.29q0-8.73-.81-11.69c-.54-2-1.4-3.24-2.57-3.8s-3.8-.84-7.86-.84v-2.58h22.37l44.92,59.35V283.37q0-5-1-7.05a7.33,7.33,0,0,0-4.22-3.19,22.32,22.32,0,0,0-7.66-1.17v-2.58h27.51V272a20,20,0,0,0-7.57,1.84,6.91,6.91,0,0,0-3.53,3.5,22.22,22.22,0,0,0-.75,6.91V347Z" transform="translate(-37.23 -191.9)"/><path id="_Compound_Path_5" data-name="&lt;Compound Path&gt;" class="cls-1" d="M732,317.26H703.14l-2,4.81c-2.9,7-4.36,11.53-4.36,13.65a6.09,6.09,0,0,0,2.33,5.17,9.52,9.52,0,0,0,6,1.77v2.57H682.56v-2.57c3.36-.53,5.85-1.71,7.5-3.56s3.61-5.73,5.93-11.66q.27-.84,2.68-6.49l22-52.63h2.19l25.33,60.24,3.47,7.94a10.62,10.62,0,0,0,3.16,4.23,11.63,11.63,0,0,0,6,1.93v2.57H731v-2.57q5.47,0,7.41-.81a3.17,3.17,0,0,0,1.93-3.22q0-1.23-2.58-7.33Zm-1-2.51-13.43-32.33L704.2,314.75Zm-14.38-52h-1.84l8.39-13a29.86,29.86,0,0,1,4.05-5.39,4.76,4.76,0,0,1,3.33-1.37,3.26,3.26,0,0,1,2.52,1,3.12,3.12,0,0,1,.89,2.1,4.42,4.42,0,0,1-1.2,2.91,94.13,94.13,0,0,1-7.64,6.77Z" transform="translate(-37.23 -191.9)"/></g><g id="_Group_2" data-name="&lt;Group&gt;"><path id="_Compound_Path_6" data-name="&lt;Compound Path&gt;" class="cls-1" d="M386.41,398.92h1.73q-2.67,9.15-13.35,9.15a15.79,15.79,0,0,1-11.58-4.67q-4.69-4.68-4.69-12.38,0-7.89,5.07-12.8a16.62,16.62,0,0,1,12-4.92,16.25,16.25,0,0,1,7.66,1.83c2.33,1.22,3.5,2.7,3.5,4.46a3.07,3.07,0,0,1-.65,1.85,2.21,2.21,0,0,1-1.87.86q-2.59,0-3.18-3a6,6,0,0,0-1.45-3.18c-.69-.6-2-.9-4-.9q-5.26,0-7.92,3.65t-2.65,11q0,7.59,2.85,11.87t8.62,4.28Q384.29,406,386.41,398.92Z" transform="translate(-37.23 -191.9)"/><path id="_Compound_Path_7" data-name="&lt;Compound Path&gt;" class="cls-1" d="M425.46,400.88h1.45q-.36,6.72-6.6,6.72a6,6,0,0,1-4.22-1.42,7.13,7.13,0,0,1-2-4.2,40.46,40.46,0,0,1-7.16,4.2,14.62,14.62,0,0,1-5.8,1.42,8.73,8.73,0,0,1-5.62-1.89,6.06,6.06,0,0,1-2.35-5q0-4,3.94-7.07A49,49,0,0,1,408,387.76l6.08-2.47v-1.58a19.15,19.15,0,0,0-.43-4.83,4.93,4.93,0,0,0-2.24-2.67,8.53,8.53,0,0,0-4.75-1.18c-3.93,0-6.11,1.31-6.56,3.93s-1.52,4-3.3,4q-2.4,0-2.4-2.28c0-1.49,1.07-3.1,3.19-4.81s5.42-2.58,9.9-2.58a15.86,15.86,0,0,1,7.74,1.57,8.17,8.17,0,0,1,3.63,3.58,16,16,0,0,1,.88,6.13v13a22.06,22.06,0,0,0,.47,5.85,2,2,0,0,0,2.05,1.3C424,404.73,425,403.45,425.46,400.88Zm-11.4-13.75-4.28,1.73q-10.12,4.13-10.13,10.37a5.94,5.94,0,0,0,1.29,4,4.25,4.25,0,0,0,3.38,1.51,9.85,9.85,0,0,0,4.28-1.22,31,31,0,0,0,5.46-3.65Z" transform="translate(-37.23 -191.9)"/><path id="_Compound_Path_8" data-name="&lt;Compound Path&gt;" class="cls-1" d="M431,407.79V397.23h1.53q2.67,9.15,9.55,9.15a5.38,5.38,0,0,0,4.45-1.81,6.08,6.08,0,0,0,1.48-4,5.71,5.71,0,0,0-1.57-4.13,25.66,25.66,0,0,0-6.25-3.89,23.93,23.93,0,0,1-7-4.71,7.91,7.91,0,0,1-2.12-5.62,9.67,9.67,0,0,1,2.28-6.07,7.69,7.69,0,0,1,6.4-2.89,8.55,8.55,0,0,1,6.95,3.42,10.37,10.37,0,0,0,1.53-2.87h1.46v9.94h-1.46a13.51,13.51,0,0,0-3-6.15,6.9,6.9,0,0,0-5.33-2.57,5.12,5.12,0,0,0-3.8,1.46,4.61,4.61,0,0,0-1.46,3.37,4.89,4.89,0,0,0,1.61,3.66,21.75,21.75,0,0,0,6,3.57q6.69,3,8.17,5.89a12.18,12.18,0,0,1,1.5,5.58,9,9,0,0,1-2.77,6.84,9.75,9.75,0,0,1-7,2.63,10.62,10.62,0,0,1-7.89-3.65,8.71,8.71,0,0,0-1.73,3.37Z" transform="translate(-37.23 -191.9)"/><path id="_Compound_Path_9" data-name="&lt;Compound Path&gt;" class="cls-1" d="M490,400.88h1.46q-.36,6.72-6.6,6.72a6,6,0,0,1-4.23-1.42,7.06,7.06,0,0,1-2-4.2,40.86,40.86,0,0,1-7.17,4.2,14.62,14.62,0,0,1-5.79,1.42,8.7,8.7,0,0,1-5.62-1.89,6.07,6.07,0,0,1-2.36-5q0-4,3.95-7.07a48.7,48.7,0,0,1,10.9-5.89l6.09-2.47v-1.58a19.15,19.15,0,0,0-.43-4.83,5,5,0,0,0-2.24-2.67,8.55,8.55,0,0,0-4.75-1.18q-5.9,0-6.57,3.93t-3.3,4c-1.59,0-2.39-.76-2.39-2.28s1.06-3.1,3.18-4.81,5.42-2.58,9.9-2.58a15.81,15.81,0,0,1,7.74,1.57,8.17,8.17,0,0,1,3.63,3.58,16,16,0,0,1,.89,6.13v13a21.62,21.62,0,0,0,.47,5.85,1.93,1.93,0,0,0,2,1.3Q489.38,404.73,490,400.88Zm-11.39-13.75-4.28,1.73q-10.14,4.13-10.14,10.37a5.9,5.9,0,0,0,1.3,4,4.23,4.23,0,0,0,3.38,1.51,9.89,9.89,0,0,0,4.28-1.22,31.71,31.71,0,0,0,5.46-3.65Z" transform="translate(-37.23 -191.9)"/><path id="_Compound_Path_10" data-name="&lt;Compound Path&gt;" class="cls-1" d="M543.15,398.92h1.73q-2.67,9.15-13.35,9.15A15.77,15.77,0,0,1,520,403.4q-4.69-4.68-4.7-12.38,0-7.89,5.07-12.8a16.62,16.62,0,0,1,12-4.92,16.25,16.25,0,0,1,7.66,1.83c2.33,1.22,3.5,2.7,3.5,4.46a3.07,3.07,0,0,1-.65,1.85,2.2,2.2,0,0,1-1.87.86q-2.58,0-3.18-3a5.93,5.93,0,0,0-1.45-3.18c-.68-.6-2-.9-4-.9q-5.26,0-7.91,3.65t-2.66,11q0,7.59,2.85,11.87t8.62,4.28Q541,406,543.15,398.92Z" transform="translate(-37.23 -191.9)"/><path id="_Compound_Path_11" data-name="&lt;Compound Path&gt;" class="cls-1" d="M560.16,381.51a13.41,13.41,0,0,1,4.34-5.85,9.61,9.61,0,0,1,5.88-2.36,5.3,5.3,0,0,1,4.08,1.61,4.88,4.88,0,0,1,1.5,3.31,2.8,2.8,0,0,1-.77,2,2.44,2.44,0,0,1-1.87.82c-1.31,0-2.3-1-3-2.9-.48-1.31-1.18-2-2.12-2q-1.69,0-4.05,2.3a10.57,10.57,0,0,0-3,4.77,27,27,0,0,0-.67,6.8v5.73q0,5.16.13,6.49a2.76,2.76,0,0,0,1.12,2,6.31,6.31,0,0,0,3.5.71h1.1v1.8H549.24V405h.83a6.5,6.5,0,0,0,3.36-.65,2.6,2.6,0,0,0,1.19-1.83,62.9,62.9,0,0,0,.2-6.76v-9.07c0-3.46-.05-5.62-.14-6.5a2.74,2.74,0,0,0-1.12-2,6.07,6.07,0,0,0-3.49-.73h-.83v-1.77a55.12,55.12,0,0,0,9.66-2.32A26.17,26.17,0,0,1,560.16,381.51Z" transform="translate(-37.23 -191.9)"/><path id="_Compound_Path_12" data-name="&lt;Compound Path&gt;" class="cls-1" d="M607.46,385.48H585c-.1,1.55-.16,2.7-.16,3.46q0,8.49,2.66,12.75a8.7,8.7,0,0,0,7.91,4.26,10.37,10.37,0,0,0,10.14-6.41h1.88a10.91,10.91,0,0,1-5,6.27,15.63,15.63,0,0,1-15.85.2,16.47,16.47,0,0,1-6-5.84,17.18,17.18,0,0,1-2.32-9.15,18.43,18.43,0,0,1,4.48-12.67A14.38,14.38,0,0,1,594,373.3q6.32,0,9.78,3.85A13.19,13.19,0,0,1,607.46,385.48Zm-6.87-1.57a14.4,14.4,0,0,0,.12-1.61,6.77,6.77,0,0,0-7-7.27c-4.76,0-7.61,3-8.52,8.88Z" transform="translate(-37.23 -191.9)"/><path id="_Compound_Path_13" data-name="&lt;Compound Path&gt;" class="cls-1" d="M646,400.88h1.45q-.35,6.72-6.59,6.72a6,6,0,0,1-4.23-1.42,7.06,7.06,0,0,1-2-4.2,40.86,40.86,0,0,1-7.17,4.2,14.62,14.62,0,0,1-5.8,1.42,8.69,8.69,0,0,1-5.61-1.89,6.07,6.07,0,0,1-2.36-5c0-2.69,1.31-5.05,4-7.07a48.7,48.7,0,0,1,10.9-5.89l6.09-2.47v-1.58a19,19,0,0,0-.44-4.83,5,5,0,0,0-2.23-2.67,8.56,8.56,0,0,0-4.76-1.18c-3.93,0-6.11,1.31-6.56,3.93s-1.52,4-3.3,4c-1.6,0-2.39-.76-2.39-2.28s1.06-3.1,3.18-4.81,5.42-2.58,9.9-2.58a15.86,15.86,0,0,1,7.74,1.57,8.17,8.17,0,0,1,3.63,3.58,16,16,0,0,1,.89,6.13v13a21.62,21.62,0,0,0,.47,5.85,1.93,1.93,0,0,0,2,1.3Q645.34,404.73,646,400.88Zm-11.39-13.75-4.28,1.73q-10.14,4.13-10.14,10.37a5.9,5.9,0,0,0,1.3,4,4.23,4.23,0,0,0,3.38,1.51,9.89,9.89,0,0,0,4.28-1.22,31.71,31.71,0,0,0,5.46-3.65Z" transform="translate(-37.23 -191.9)"/><path id="_Compound_Path_14" data-name="&lt;Compound Path&gt;" class="cls-1" d="M669.53,376.41h-9.71v19.44a28.82,28.82,0,0,0,.4,6,4.33,4.33,0,0,0,1.67,2.5,4.56,4.56,0,0,0,2.73.94q2.82,0,4.91-3.22l1.26.75a8.48,8.48,0,0,1-3.6,3.9,9.8,9.8,0,0,1-4.81,1.32,7.87,7.87,0,0,1-5-1.67,6.92,6.92,0,0,1-2.67-3.91,38.74,38.74,0,0,1-.53-7.86V376.41h-4.68V374.6a8.18,8.18,0,0,0,5.78-2.71,13.09,13.09,0,0,0,3.26-7.39h1.25v10.1h9.71Z" transform="translate(-37.23 -191.9)"/><path id="_Compound_Path_15" data-name="&lt;Compound Path&gt;" class="cls-1" d="M683.87,373.3v22.43q0,5.16.16,6.49a2.77,2.77,0,0,0,1.13,2,6.31,6.31,0,0,0,3.5.71h.83v1.8H672.16V405h1.34q2.79,0,3.63-.81a3.06,3.06,0,0,0,1-1.92c.1-.75.14-2.92.14-6.51V386c0-3.77-.17-6.07-.53-6.91a2.56,2.56,0,0,0-1.41-1.57,10.34,10.34,0,0,0-3.09-.32h-1.06v-1.8A48.35,48.35,0,0,0,683,373.3Zm-7.58-16.42a4,4,0,0,1,1.2-2.9,3.87,3.87,0,0,1,2.88-1.22,3.8,3.8,0,0,1,2.87,1.22,4,4,0,0,1,1.18,2.9,4.06,4.06,0,0,1-1.18,2.95,3.84,3.84,0,0,1-2.87,1.22,3.91,3.91,0,0,1-2.88-1.22A4,4,0,0,1,676.29,356.88Z" transform="translate(-37.23 -191.9)"/><path id="_Compound_Path_16" data-name="&lt;Compound Path&gt;" class="cls-1" d="M710.54,408.07h-2.28l-11.43-25.81a19.22,19.22,0,0,0-2.67-4.75,4.54,4.54,0,0,0-3.22-1.1V374.6h14.54v1.81a9.24,9.24,0,0,0-3.28.39,1.48,1.48,0,0,0-.89,1.49,15.29,15.29,0,0,0,1.57,4.21L711.56,402l7.82-17.4c1.23-2.78,1.85-4.58,1.85-5.42q0-2.64-3.93-2.79V374.6h10.84v1.81a4.68,4.68,0,0,0-3.36,1.67,33.45,33.45,0,0,0-3.79,7Z" transform="translate(-37.23 -191.9)"/><path id="_Compound_Path_17" data-name="&lt;Compound Path&gt;" class="cls-1" d="M762.55,400.88H764q-.36,6.72-6.6,6.72a6,6,0,0,1-4.23-1.42,7.06,7.06,0,0,1-2-4.2,40.86,40.86,0,0,1-7.17,4.2,14.62,14.62,0,0,1-5.79,1.42,8.7,8.7,0,0,1-5.62-1.89,6.07,6.07,0,0,1-2.36-5q0-4,3.95-7.07a48.7,48.7,0,0,1,10.9-5.89l6.09-2.47v-1.58a19.64,19.64,0,0,0-.43-4.83,5,5,0,0,0-2.24-2.67,8.56,8.56,0,0,0-4.76-1.18q-5.88,0-6.56,3.93t-3.3,4c-1.59,0-2.39-.76-2.39-2.28s1.06-3.1,3.18-4.81,5.42-2.58,9.9-2.58a15.81,15.81,0,0,1,7.74,1.57,8.17,8.17,0,0,1,3.63,3.58,16,16,0,0,1,.89,6.13v13a21.62,21.62,0,0,0,.47,5.85,1.93,1.93,0,0,0,2,1.3Q761.93,404.73,762.55,400.88Zm-11.39-13.75-4.28,1.73q-10.14,4.13-10.14,10.37a5.9,5.9,0,0,0,1.3,4,4.23,4.23,0,0,0,3.38,1.51,9.89,9.89,0,0,0,4.28-1.22,31.71,31.71,0,0,0,5.46-3.65Z" transform="translate(-37.23 -191.9)"/></g><path id="_Path_" data-name="&lt;Path&gt;" class="cls-2" d="M160.67,311.08V415.22H112.32V319.46s-7.8-101.64-75.09-124a84.14,84.14,0,0,1,24.05-3.53C116.17,191.9,160.67,245.26,160.67,311.08Z" transform="translate(-37.23 -191.9)"/><g id="_Group_3" data-name="&lt;Group&gt;"><path id="_Path_2" data-name="&lt;Path&gt;" class="cls-3" d="M211.24,191.9c-29.94,0-56.76,15.89-75,41,15.19,20.93,24.41,48.26,24.41,78.19V315c2.43-19.85,15.8-100,74.62-119.56A84.14,84.14,0,0,0,211.24,191.9Z" transform="translate(-37.23 -191.9)"/></g><path id="_Path_3" data-name="&lt;Path&gt;" class="cls-4" d="M312.34,344.43c0,19.14-19.21,35.91-48,45.16v24.93h48V323.88h0Z" transform="translate(-37.23 -191.9)"/><path id="_Path_4" data-name="&lt;Path&gt;" class="cls-5" d="M312.34,311.07v-4l-.09,0c-1.51-54.28-34.51-99.21-77-111.6a80.61,80.61,0,0,0-23.18,12.28C258,242.39,264,319.39,264,319.46v21.26s-7.81,45-75.1,54.91a183.57,183.57,0,0,0,24.05,1.57c54.9,0,99.4-23.63,99.4-52.77V311.08h0Z" transform="translate(-37.23 -191.9)"/></svg>