<?xml version="1.0" encoding="utf-8"?>
<!-- Generator: Adobe Illustrator 22.0.1, SVG Export Plug-In . SVG Version: 6.00 Build 0)  -->
<svg version="1.1" id="Capa_1" xmlns="http://www.w3.org/2000/svg" xmlns:xlink="http://www.w3.org/1999/xlink" x="0px" y="0px"
	 viewBox="0 0 792 612" style="enable-background:new 0 0 792 612;" xml:space="preserve">
<style type="text/css">
	.st0{fill:#FFFFFF;}
</style>
<g id="XMLID_323_">
	<path id="XMLID_335_" class="st0" d="M408.2,317.3h-28.8l-2,4.8c-2.9,7-4.4,11.5-4.4,13.6c0,2.3,0.8,4,2.3,5.2
		c1.5,1.2,3.5,1.8,6,1.8v2.6h-22.5v-2.6c3.4-0.5,5.9-1.7,7.5-3.6c1.6-1.8,3.6-5.7,5.9-11.7c0.2-0.6,1.1-2.7,2.7-6.5l22-52.6h2.2
		l25.3,60.2l3.5,7.9c0.8,1.8,1.8,3.2,3.2,4.2c1.3,1,3.3,1.7,6,1.9v2.6h-29.8v-2.6c3.7,0,6.1-0.3,7.4-0.8c1.3-0.5,1.9-1.6,1.9-3.2
		c0-0.8-0.9-3.3-2.6-7.3L408.2,317.3z M407.2,314.7l-13.4-32.3l-13.4,32.3H407.2z"/>
	<path id="XMLID_333_" class="st0" d="M506.8,347l-53.6-71.1v52.6c0,4.4,0.2,7.2,0.6,8.6c0.4,1.4,1.6,2.6,3.7,3.8
		c2,1.2,5,1.7,9.1,1.7v2.6h-28.3v-2.6c3.6-0.3,6.4-0.9,8.3-2c1.9-1.1,3-2.2,3.4-3.4c0.4-1.2,0.5-4.1,0.5-8.7v-40.2
		c0-5.8-0.3-9.7-0.8-11.7c-0.5-2-1.4-3.2-2.6-3.8c-1.2-0.6-3.8-0.8-7.9-0.8v-2.6h22.4l44.9,59.3v-45.4c0-3.4-0.3-5.7-1-7
		c-0.7-1.3-2.1-2.4-4.2-3.2c-2.1-0.8-4.7-1.2-7.7-1.2v-2.6h27.5v2.6c-3.2,0.3-5.7,0.9-7.6,1.8c-1.8,1-3,2.1-3.5,3.5
		c-0.5,1.4-0.8,3.7-0.8,6.9V347H506.8z"/>
	<path id="XMLID_330_" class="st0" d="M568.5,317.3h-28.8l-2,4.8c-2.9,7-4.4,11.5-4.4,13.6c0,2.3,0.8,4,2.3,5.2
		c1.5,1.2,3.5,1.8,6,1.8v2.6h-22.5v-2.6c3.4-0.5,5.9-1.7,7.5-3.6c1.6-1.8,3.6-5.7,5.9-11.7c0.2-0.6,1.1-2.7,2.7-6.5l22-52.6h2.2
		l25.3,60.2l3.5,7.9c0.8,1.8,1.8,3.2,3.2,4.2c1.3,1,3.3,1.7,6,1.9v2.6h-29.8v-2.6c3.7,0,6.1-0.3,7.4-0.8c1.3-0.5,1.9-1.6,1.9-3.2
		c0-0.8-0.9-3.3-2.6-7.3L568.5,317.3z M567.5,314.7l-13.4-32.3l-13.4,32.3H567.5z"/>
	<path id="XMLID_328_" class="st0" d="M667.1,347l-53.6-71.1v52.6c0,4.4,0.2,7.2,0.6,8.6c0.4,1.4,1.6,2.6,3.7,3.8
		c2,1.2,5,1.7,9.1,1.7v2.6h-28.3v-2.6c3.6-0.3,6.4-0.9,8.3-2c1.9-1.1,3-2.2,3.4-3.4c0.4-1.2,0.5-4.1,0.5-8.7v-40.2
		c0-5.8-0.3-9.7-0.8-11.7c-0.5-2-1.4-3.2-2.6-3.8c-1.2-0.6-3.8-0.8-7.9-0.8v-2.6h22.4l44.9,59.3v-45.4c0-3.4-0.3-5.7-1-7
		c-0.7-1.3-2.1-2.4-4.2-3.2c-2.1-0.8-4.7-1.2-7.7-1.2v-2.6h27.5v2.6c-3.2,0.3-5.7,0.9-7.6,1.8c-1.8,1-3,2.1-3.5,3.5
		c-0.5,1.4-0.8,3.7-0.8,6.9V347H667.1z"/>
	<path id="XMLID_324_" class="st0" d="M731.9,317.3h-28.8l-2,4.8c-2.9,7-4.4,11.5-4.4,13.6c0,2.3,0.8,4,2.3,5.2
		c1.5,1.2,3.5,1.8,6,1.8v2.6h-22.5v-2.6c3.4-0.5,5.9-1.7,7.5-3.6c1.6-1.8,3.6-5.7,5.9-11.7c0.2-0.6,1.1-2.7,2.7-6.5l22-52.6h2.2
		l25.3,60.2l3.5,7.9c0.8,1.8,1.8,3.2,3.2,4.2c1.3,1,3.3,1.7,6,1.9v2.6H731v-2.6c3.7,0,6.1-0.3,7.4-0.8c1.3-0.5,1.9-1.6,1.9-3.2
		c0-0.8-0.9-3.3-2.6-7.3L731.9,317.3z M731,314.7l-13.4-32.3l-13.4,32.3H731z M716.6,262.8h-1.8l8.4-13c1.7-2.7,3.1-4.5,4.1-5.4
		c1-0.9,2.1-1.4,3.3-1.4c1.1,0,1.9,0.3,2.5,1c0.6,0.7,0.9,1.4,0.9,2.1c0,1-0.4,2-1.2,2.9c-0.8,0.9-3.3,3.2-7.6,6.8L716.6,262.8z"/>
</g>
<g id="XMLID_292_">
	<path id="XMLID_321_" class="st0" d="M386.4,398.9h1.7c-1.8,6.1-6.2,9.2-13.4,9.2c-4.6,0-8.4-1.6-11.6-4.7
		c-3.1-3.1-4.7-7.2-4.7-12.4c0-5.3,1.7-9.5,5.1-12.8c3.4-3.3,7.4-4.9,12-4.9c2.8,0,5.3,0.6,7.7,1.8c2.3,1.2,3.5,2.7,3.5,4.5
		c0,0.7-0.2,1.3-0.6,1.8c-0.4,0.6-1.1,0.9-1.9,0.9c-1.7,0-2.8-1-3.2-3c-0.3-1.5-0.8-2.6-1.5-3.2c-0.7-0.6-2-0.9-4-0.9
		c-3.5,0-6.1,1.2-7.9,3.7s-2.7,6.1-2.7,11c0,5.1,0.9,9,2.8,11.9c1.9,2.9,4.8,4.3,8.6,4.3C381.7,406,385,403.6,386.4,398.9z"/>
	<path id="XMLID_318_" class="st0" d="M425.5,400.9h1.5c-0.2,4.5-2.4,6.7-6.6,6.7c-1.8,0-3.2-0.5-4.2-1.4c-1-0.9-1.7-2.3-2-4.2
		c-2.6,1.9-5,3.3-7.2,4.2c-2.2,0.9-4.1,1.4-5.8,1.4c-2.2,0-4-0.6-5.6-1.9c-1.6-1.3-2.4-2.9-2.4-5c0-2.7,1.3-5.1,3.9-7.1
		c2.6-2,6.3-4,10.9-5.9l6.1-2.5v-1.6c0-2.2-0.1-3.8-0.4-4.8c-0.3-1-1-1.9-2.2-2.7c-1.2-0.8-2.8-1.2-4.8-1.2c-3.9,0-6.1,1.3-6.6,3.9
		c-0.4,2.7-1.5,4-3.3,4c-1.6,0-2.4-0.8-2.4-2.3c0-1.5,1.1-3.1,3.2-4.8c2.1-1.7,5.4-2.6,9.9-2.6c3.3,0,5.9,0.5,7.7,1.6
		c1.8,1,3,2.2,3.6,3.6c0.6,1.3,0.9,3.4,0.9,6.1v13c0,3,0.2,5,0.5,5.9c0.3,0.9,1,1.3,2,1.3C424,404.7,425,403.4,425.5,400.9z
		 M414.1,387.1l-4.3,1.7c-6.8,2.8-10.1,6.2-10.1,10.4c0,1.7,0.4,3,1.3,4c0.9,1,2,1.5,3.4,1.5c1.2,0,2.7-0.4,4.3-1.2
		c1.6-0.8,3.4-2,5.5-3.7V387.1z"/>
	<path id="XMLID_316_" class="st0" d="M431,407.8v-10.6h1.5c1.8,6.1,5,9.2,9.5,9.2c2,0,3.5-0.6,4.5-1.8c1-1.2,1.5-2.5,1.5-4
		c0-1.7-0.5-3.1-1.6-4.1c-1.1-1.1-3.2-2.4-6.2-3.9c-3.2-1.6-5.6-3.2-7-4.7c-1.4-1.5-2.1-3.4-2.1-5.6c0-2.1,0.8-4.1,2.3-6.1
		c1.5-1.9,3.7-2.9,6.4-2.9c2.8,0,5.1,1.1,7,3.4c0.4-0.4,0.9-1.3,1.5-2.9h1.5v9.9h-1.5c-0.5-2.4-1.5-4.4-3-6.1
		c-1.5-1.7-3.3-2.6-5.3-2.6c-1.6,0-2.8,0.5-3.8,1.5c-1,1-1.5,2.1-1.5,3.4c0,1.4,0.5,2.6,1.6,3.7c1,1,3.1,2.2,6,3.6
		c4.5,2,7.2,4,8.2,5.9c1,1.9,1.5,3.8,1.5,5.6c0,2.8-0.9,5.1-2.8,6.8c-1.8,1.8-4.2,2.6-7,2.6c-3,0-5.6-1.2-7.9-3.7
		c-0.7,0.8-1.3,1.9-1.7,3.4H431z"/>
	<path id="XMLID_313_" class="st0" d="M490,400.9h1.5c-0.2,4.5-2.4,6.7-6.6,6.7c-1.8,0-3.2-0.5-4.2-1.4c-1-0.9-1.7-2.3-2-4.2
		c-2.6,1.9-5,3.3-7.2,4.2c-2.2,0.9-4.1,1.4-5.8,1.4c-2.2,0-4-0.6-5.6-1.9c-1.6-1.3-2.4-2.9-2.4-5c0-2.7,1.3-5.1,3.9-7.1
		c2.6-2,6.3-4,10.9-5.9l6.1-2.5v-1.6c0-2.2-0.1-3.8-0.4-4.8c-0.3-1-1-1.9-2.2-2.7c-1.2-0.8-2.8-1.2-4.8-1.2c-3.9,0-6.1,1.3-6.6,3.9
		c-0.4,2.7-1.5,4-3.3,4c-1.6,0-2.4-0.8-2.4-2.3c0-1.5,1.1-3.1,3.2-4.8c2.1-1.7,5.4-2.6,9.9-2.6c3.3,0,5.9,0.5,7.7,1.6
		c1.8,1,3,2.2,3.6,3.6c0.6,1.3,0.9,3.4,0.9,6.1v13c0,3,0.2,5,0.5,5.9c0.3,0.9,1,1.3,2,1.3C488.5,404.7,489.6,403.4,490,400.9z
		 M478.6,387.1l-4.3,1.7c-6.8,2.8-10.1,6.2-10.1,10.4c0,1.7,0.4,3,1.3,4c0.9,1,2,1.5,3.4,1.5c1.2,0,2.7-0.4,4.3-1.2
		c1.6-0.8,3.4-2,5.5-3.7V387.1z"/>
	<path id="XMLID_311_" class="st0" d="M543.2,398.9h1.7c-1.8,6.1-6.2,9.2-13.4,9.2c-4.6,0-8.4-1.6-11.6-4.7
		c-3.1-3.1-4.7-7.2-4.7-12.4c0-5.3,1.7-9.5,5.1-12.8c3.4-3.3,7.4-4.9,12-4.9c2.8,0,5.3,0.6,7.7,1.8c2.3,1.2,3.5,2.7,3.5,4.5
		c0,0.7-0.2,1.3-0.6,1.8c-0.4,0.6-1.1,0.9-1.9,0.9c-1.7,0-2.8-1-3.2-3c-0.3-1.5-0.8-2.6-1.5-3.2c-0.7-0.6-2-0.9-4-0.9
		c-3.5,0-6.1,1.2-7.9,3.7s-2.7,6.1-2.7,11c0,5.1,0.9,9,2.8,11.9c1.9,2.9,4.8,4.3,8.6,4.3C538.4,406,541.7,403.6,543.2,398.9z"/>
	<path id="XMLID_309_" class="st0" d="M560.2,381.5c0.9-2.3,2.3-4.3,4.3-5.9c2-1.6,4-2.4,5.9-2.4c1.7,0,3.1,0.5,4.1,1.6
		c1,1.1,1.5,2.2,1.5,3.3c0,0.8-0.3,1.4-0.8,2c-0.5,0.6-1.1,0.8-1.9,0.8c-1.3,0-2.3-1-3-2.9c-0.5-1.3-1.2-2-2.1-2
		c-1.1,0-2.5,0.8-4,2.3c-1.6,1.5-2.6,3.1-3,4.8c-0.4,1.6-0.7,3.9-0.7,6.8v5.7c0,3.4,0,5.6,0.1,6.5c0.1,0.9,0.5,1.6,1.1,2
		c0.7,0.5,1.8,0.7,3.5,0.7h1.1v1.8h-17.1V405h0.8c1.6,0,2.7-0.2,3.4-0.6c0.7-0.4,1.1-1,1.2-1.8c0.1-0.8,0.2-3,0.2-6.8v-9.1
		c0-3.5,0-5.6-0.1-6.5c-0.1-0.9-0.5-1.6-1.1-2c-0.7-0.5-1.8-0.7-3.5-0.7h-0.8v-1.8c2.5-0.3,5.7-1.1,9.7-2.3
		C559.7,375.4,560.1,378.1,560.2,381.5z"/>
	<path id="XMLID_306_" class="st0" d="M607.5,385.5H585c-0.1,1.5-0.2,2.7-0.2,3.5c0,5.7,0.9,9.9,2.7,12.7c1.8,2.8,4.4,4.3,7.9,4.3
		c4.8,0,8.1-2.1,10.1-6.4h1.9c-0.8,2.7-2.5,4.8-5,6.3c-2.5,1.5-5.2,2.3-8.1,2.3c-2.7,0-5.3-0.7-7.7-2.1s-4.4-3.3-6-5.8
		c-1.5-2.5-2.3-5.6-2.3-9.2c0-5.1,1.5-9.3,4.5-12.7s6.7-5,11.2-5c4.2,0,7.5,1.3,9.8,3.9C606.1,379.7,607.3,382.5,607.5,385.5z
		 M600.6,383.9c0.1-0.6,0.1-1.1,0.1-1.6c0-2.3-0.7-4.1-2-5.4c-1.4-1.3-3-1.9-5-1.9c-4.8,0-7.6,3-8.5,8.9H600.6z"/>
	<path id="XMLID_303_" class="st0" d="M646,400.9h1.5c-0.2,4.5-2.4,6.7-6.6,6.7c-1.8,0-3.2-0.5-4.2-1.4c-1-0.9-1.7-2.3-2-4.2
		c-2.6,1.9-5,3.3-7.2,4.2c-2.2,0.9-4.1,1.4-5.8,1.4c-2.2,0-4-0.6-5.6-1.9c-1.6-1.3-2.4-2.9-2.4-5c0-2.7,1.3-5.1,3.9-7.1
		c2.6-2,6.3-4,10.9-5.9l6.1-2.5v-1.6c0-2.2-0.1-3.8-0.4-4.8c-0.3-1-1-1.9-2.2-2.7c-1.2-0.8-2.8-1.2-4.8-1.2c-3.9,0-6.1,1.3-6.6,3.9
		c-0.4,2.7-1.5,4-3.3,4c-1.6,0-2.4-0.8-2.4-2.3c0-1.5,1.1-3.1,3.2-4.8c2.1-1.7,5.4-2.6,9.9-2.6c3.3,0,5.9,0.5,7.7,1.6
		c1.8,1,3,2.2,3.6,3.6c0.6,1.3,0.9,3.4,0.9,6.1v13c0,3,0.2,5,0.5,5.9c0.3,0.9,1,1.3,2,1.3C644.5,404.7,645.5,403.4,646,400.9z
		 M634.6,387.1l-4.3,1.7c-6.8,2.8-10.1,6.2-10.1,10.4c0,1.7,0.4,3,1.3,4c0.9,1,2,1.5,3.4,1.5c1.2,0,2.7-0.4,4.3-1.2
		c1.6-0.8,3.4-2,5.5-3.7V387.1z"/>
	<path id="XMLID_301_" class="st0" d="M669.5,376.4h-9.7v19.4c0,3,0.1,5,0.4,6c0.3,1,0.8,1.9,1.7,2.5c0.9,0.6,1.8,0.9,2.7,0.9
		c1.9,0,3.5-1.1,4.9-3.2l1.3,0.7c-0.8,1.7-2,3-3.6,3.9c-1.6,0.9-3.2,1.3-4.8,1.3c-1.9,0-3.5-0.6-5-1.7c-1.4-1.1-2.3-2.4-2.7-3.9
		c-0.4-1.5-0.5-4.1-0.5-7.9v-18.2h-4.7v-1.8c2.1-0.1,4.1-1,5.8-2.7s2.8-4.2,3.3-7.4h1.3v10.1h9.7V376.4z"/>
	<path id="XMLID_298_" class="st0" d="M683.9,373.3v22.4c0,3.4,0.1,5.6,0.2,6.5c0.1,0.9,0.5,1.6,1.1,2c0.7,0.5,1.8,0.7,3.5,0.7h0.8
		v1.8h-17.3V405h1.3c1.9,0,3.1-0.3,3.6-0.8c0.6-0.5,0.9-1.2,1-1.9c0.1-0.7,0.1-2.9,0.1-6.5V386c0-3.8-0.2-6.1-0.5-6.9
		c-0.4-0.8-0.8-1.4-1.4-1.6c-0.6-0.2-1.6-0.3-3.1-0.3h-1.1v-1.8c4.7-0.5,8.3-1.2,10.8-2.1H683.9z M676.3,356.9
		c0-1.1,0.4-2.1,1.2-2.9c0.8-0.8,1.8-1.2,2.9-1.2c1.1,0,2.1,0.4,2.9,1.2c0.8,0.8,1.2,1.8,1.2,2.9c0,1.2-0.4,2.1-1.2,2.9
		c-0.8,0.8-1.7,1.2-2.9,1.2c-1.1,0-2.1-0.4-2.9-1.2C676.7,359,676.3,358,676.3,356.9z"/>
	<path id="XMLID_296_" class="st0" d="M710.5,408.1h-2.3l-11.4-25.8c-1.1-2.5-2-4.1-2.7-4.8c-0.7-0.7-1.7-1-3.2-1.1v-1.8h14.5v1.8
		c-1.6,0-2.7,0.1-3.3,0.4c-0.6,0.3-0.9,0.8-0.9,1.5c0,0.6,0.5,2,1.6,4.2l8.7,19.5l7.8-17.4c1.2-2.8,1.8-4.6,1.8-5.4
		c0-1.8-1.3-2.7-3.9-2.8v-1.8h10.8v1.8c-1.3,0.1-2.5,0.6-3.4,1.7c-0.9,1-2.2,3.4-3.8,7L710.5,408.1z"/>
	<path id="XMLID_293_" class="st0" d="M762.6,400.9h1.5c-0.2,4.5-2.4,6.7-6.6,6.7c-1.8,0-3.2-0.5-4.2-1.4c-1-0.9-1.7-2.3-2-4.2
		c-2.6,1.9-5,3.3-7.2,4.2c-2.2,0.9-4.1,1.4-5.8,1.4c-2.2,0-4-0.6-5.6-1.9c-1.6-1.3-2.4-2.9-2.4-5c0-2.7,1.3-5.1,3.9-7.1
		s6.3-4,10.9-5.9l6.1-2.5v-1.6c0-2.2-0.1-3.8-0.4-4.8c-0.3-1-1-1.9-2.2-2.7c-1.2-0.8-2.8-1.2-4.8-1.2c-3.9,0-6.1,1.3-6.6,3.9
		c-0.4,2.7-1.5,4-3.3,4c-1.6,0-2.4-0.8-2.4-2.3c0-1.5,1.1-3.1,3.2-4.8c2.1-1.7,5.4-2.6,9.9-2.6c3.3,0,5.9,0.5,7.7,1.6
		c1.8,1,3,2.2,3.6,3.6c0.6,1.3,0.9,3.4,0.9,6.1v13c0,3,0.2,5,0.5,5.9c0.3,0.9,1,1.3,2,1.3C761.1,404.7,762.1,403.4,762.6,400.9z
		 M751.2,387.1l-4.3,1.7c-6.8,2.8-10.1,6.2-10.1,10.4c0,1.7,0.4,3,1.3,4c0.9,1,2,1.5,3.4,1.5c1.2,0,2.7-0.4,4.3-1.2
		c1.6-0.8,3.4-2,5.5-3.7V387.1z"/>
</g>
<path id="XMLID_132_" class="st0" d="M160.7,311.1v104.1h-48.4v-95.8c0,0-7.8-101.6-75.1-124c7.7-2.3,15.8-3.5,24.1-3.5
	C116.2,191.9,160.7,245.3,160.7,311.1z"/>
<g id="XMLID_129_">
	<path id="XMLID_130_" class="st0" d="M211.2,191.9c-29.9,0-56.8,15.9-75,41c15.2,20.9,24.4,48.3,24.4,78.2v3.9
		c2.4-19.9,15.8-100,74.6-119.6C227.6,193.1,219.5,191.9,211.2,191.9z"/>
</g>
<path id="XMLID_3_" class="st0" d="M312.3,344.4c0,19.1-19.2,35.9-48,45.2v24.9h48v-90.6h0V344.4z"/>
<path id="XMLID_4_" class="st0" d="M312.3,311.1v-4l-0.1,0c-1.5-54.3-34.5-99.2-77-111.6c-8.7,2.9-16.4,7.1-23.2,12.3
	C258,242.4,264,319.4,264,319.5v21.3c0,0-7.8,45-75.1,54.9c7.7,1,15.8,1.6,24.1,1.6c54.9,0,99.4-23.6,99.4-52.8V311.1L312.3,311.1
	C312.3,311.1,312.3,311.1,312.3,311.1z"/>
</svg>
